<svg xmlns="http://www.w3.org/2000/svg" width="520" height="980" viewBox="0 0 520 980">
  <defs>
    <filter id="shadow" x="-30%" y="-30%" width="160%" height="180%">
      <feDropShadow dx="0" dy="12" stdDeviation="18" flood-color="#534B3F" flood-opacity=".10"/>
    </filter>
    <g id="nine">
      <rect width="7" height="7" rx="2" fill="#D8D6D0"/><rect x="10" width="7" height="7" rx="2" fill="#D8D6D0"/><rect x="20" width="7" height="7" rx="2" fill="#D8D6D0"/>
      <rect y="10" width="7" height="7" rx="2" fill="#D8D6D0"/><rect x="10" y="10" width="7" height="7" rx="2" fill="#D8D6D0"/><rect x="20" y="10" width="7" height="7" rx="2" fill="#D8D6D0"/>
      <rect y="20" width="7" height="7" rx="2" fill="#D8D6D0"/><rect x="10" y="20" width="7" height="7" rx="2" fill="#D8D6D0"/><rect x="20" y="20" width="7" height="7" rx="2" fill="#D8D6D0"/>
    </g>
    <g id="nine-a">
      <use href="#nine"/>
      <rect width="7" height="7" rx="2" fill="#A9795B"/><rect x="10" width="7" height="7" rx="2" fill="#315F8A"/>
    </g>
    <g id="nine-b">
      <use href="#nine"/>
      <rect width="7" height="7" rx="2" fill="#A9795B"/><rect x="20" width="7" height="7" rx="2" fill="#82BDE3"/><rect y="10" width="7" height="7" rx="2" fill="#7FB77E"/>
    </g>
    <g id="nine-c">
      <use href="#nine"/>
      <rect x="10" width="7" height="7" rx="2" fill="#315F8A"/>
    </g>
  </defs>
  <rect width="520" height="980" fill="#EDEAE3"/>
  <rect x="65" y="38" width="390" height="844" rx="52" fill="#FAF9F6" filter="url(#shadow)"/>
  <rect x="196" y="54" width="128" height="28" rx="14" fill="#252522"/>

  <g font-family="-apple-system, BlinkMacSystemFont, 'PingFang SC', sans-serif">
    <!-- tabs -->
    <text x="89" y="143" font-size="32" font-weight="750" fill="#252522">月历</text>
    <text x="174" y="142" font-size="20" font-weight="500" fill="#AAA8A1">任务</text>

    <!-- month nav -->
    <g transform="translate(119 188)">
      <rect width="44" height="44" rx="14" fill="#EEEAE3"/>
      <path d="M26 14l-9 8 9 8" fill="none" stroke="#252522" stroke-width="2.5" stroke-linecap="round" stroke-linejoin="round"/>
      <text x="141" y="29" text-anchor="middle" font-size="19" font-weight="650" fill="#252522">2026年6月</text>
      <rect x="238" width="44" height="44" rx="14" fill="#EEEAE3"/>
      <path d="M256 14l9 8-9 8" fill="none" stroke="#AAA8A1" stroke-width="2.5" stroke-linecap="round" stroke-linejoin="round"/>
    </g>

    <!-- weekday -->
    <g fill="#77756F" font-size="12" text-anchor="middle">
      <text x="105" y="274">日</text><text x="155" y="274">一</text><text x="205" y="274">二</text>
      <text x="255" y="274">三</text><text x="305" y="274">四</text><text x="355" y="274">五</text><text x="405" y="274">六</text>
    </g>
    <line x1="89" y1="290" x2="431" y2="290" stroke="#E8E5DE"/>

    <!-- row 1 -->
    <g font-size="11" text-anchor="middle">
      <text x="105" y="321" fill="#C5C2BB">31</text><use href="#nine" x="91.5" y="331" opacity=".55"/>
      <rect x="132" y="304" width="46" height="64" rx="13" fill="#EFEAE2"/><text x="155" y="321" fill="#77756F">1</text><use href="#nine-a" x="141.5" y="331"/>
      <text x="205" y="321" fill="#77756F">2</text><use href="#nine-c" x="191.5" y="331"/>
      <rect x="232" y="304" width="46" height="64" rx="13" fill="#EFEAE2"/><text x="255" y="321" fill="#77756F">3</text><use href="#nine-b" x="241.5" y="331"/>
      <text x="305" y="321" fill="#77756F">4</text><use href="#nine-c" x="291.5" y="331"/>
      <rect x="332" y="304" width="46" height="64" rx="13" fill="#EFEAE2"/><text x="355" y="321" fill="#77756F">5</text><use href="#nine-a" x="341.5" y="331"/>
      <text x="405" y="321" fill="#77756F">6</text><use href="#nine" x="391.5" y="331"/>
    </g>

    <!-- row 2 -->
    <g font-size="11" text-anchor="middle">
      <rect x="82" y="394" width="46" height="64" rx="13" fill="#EFEAE2"/><text x="105" y="411" fill="#77756F">7</text><use href="#nine-b" x="91.5" y="421"/>
      <text x="155" y="411" fill="#77756F">8</text><use href="#nine-c" x="141.5" y="421"/>
      <rect x="182" y="394" width="46" height="64" rx="13" fill="#EFEAE2"/><text x="205" y="411" fill="#77756F">9</text><use href="#nine-a" x="191.5" y="421"/>
      <text x="255" y="411" fill="#77756F">10</text><use href="#nine-c" x="241.5" y="421"/>
      <rect x="282" y="394" width="46" height="64" rx="13" fill="#EFEAE2" stroke="#252522" stroke-width="2"/>
      <text x="305" y="411" fill="#252522" font-weight="700">11</text><use href="#nine-b" x="291.5" y="421"/>
      <text x="355" y="411" fill="#AAA8A1">12</text><use href="#nine" x="341.5" y="421"/>
      <text x="405" y="411" fill="#AAA8A1">13</text><use href="#nine" x="391.5" y="421"/>
    </g>

    <!-- rows 3-5 -->
    <g font-size="11" text-anchor="middle" fill="#AAA8A1">
      <text x="105" y="501">14</text><use href="#nine" x="91.5" y="511"/>
      <text x="155" y="501">15</text><use href="#nine" x="141.5" y="511"/>
      <text x="205" y="501">16</text><use href="#nine" x="191.5" y="511"/>
      <text x="255" y="501">17</text><use href="#nine" x="241.5" y="511"/>
      <text x="305" y="501">18</text><use href="#nine" x="291.5" y="511"/>
      <text x="355" y="501">19</text><use href="#nine" x="341.5" y="511"/>
      <text x="405" y="501">20</text><use href="#nine" x="391.5" y="511"/>

      <text x="105" y="591">21</text><use href="#nine" x="91.5" y="601"/>
      <text x="155" y="591">22</text><use href="#nine" x="141.5" y="601"/>
      <text x="205" y="591">23</text><use href="#nine" x="191.5" y="601"/>
      <text x="255" y="591">24</text><use href="#nine" x="241.5" y="601"/>
      <text x="305" y="591">25</text><use href="#nine" x="291.5" y="601"/>
      <text x="355" y="591">26</text><use href="#nine" x="341.5" y="601"/>
      <text x="405" y="591">27</text><use href="#nine" x="391.5" y="601"/>

      <text x="105" y="681">28</text><use href="#nine" x="91.5" y="691"/>
      <text x="155" y="681">29</text><use href="#nine" x="141.5" y="691"/>
      <text x="205" y="681">30</text><use href="#nine" x="191.5" y="691"/>
      <text x="255" y="681" fill="#C5C2BB">1</text><use href="#nine" x="241.5" y="691" opacity=".55"/>
      <text x="305" y="681" fill="#C5C2BB">2</text><use href="#nine" x="291.5" y="691" opacity=".55"/>
      <text x="355" y="681" fill="#C5C2BB">3</text><use href="#nine" x="341.5" y="691" opacity=".55"/>
      <text x="405" y="681" fill="#C5C2BB">4</text><use href="#nine" x="391.5" y="691" opacity=".55"/>
    </g>

    <!-- nav -->
    <g transform="translate(65 785)">
      <path d="M0 0h390v45q0 52-52 52H52Q0 97 0 45z" fill="#FFFFFF" fill-opacity=".92"/>
      <line x1="24" y1="0" x2="366" y2="0" stroke="#E8E5DE"/>
      <g transform="translate(112 18)">
        <path d="M-10 7l10-9 10 9v12H3v-8h-6v8h-7z" fill="none" stroke="#AAA8A1" stroke-width="1.8"/>
        <text y="42" text-anchor="middle" font-size="11" fill="#AAA8A1">首页</text>
      </g>
      <g transform="translate(278 18)">
        <rect x="-10" y="-2" width="20" height="20" rx="5" fill="#252522"/>
        <path d="M-5 4h10M-5 9h10M-5 14h7" stroke="#FFFFFF" stroke-width="1.6" stroke-linecap="round"/>
        <text y="42" text-anchor="middle" font-size="11" font-weight="650" fill="#252522">记录</text>
      </g>
    </g>
  </g>
</svg>
