<svg xmlns="http://www.w3.org/2000/svg" width="900" height="1100" viewBox="0 0 900 1100">
  <rect width="900" height="1100" fill="#f2f2f2"/>

  <!-- Canvas title -->
  <text x="80" y="88" font-family="Arial, PingFang SC, sans-serif" font-size="28" font-weight="700" fill="#222">万岁 App · 首页低保真</text>
  <text x="80" y="126" font-family="Arial, PingFang SC, sans-serif" font-size="18" fill="#777">第一期 V1.0｜切换日期并完成打卡</text>

  <!-- Phone frame -->
  <rect x="245" y="168" width="410" height="820" rx="58" fill="#fff" stroke="#222" stroke-width="5"/>
  <rect x="375" y="187" width="150" height="26" rx="13" fill="#222"/>

  <!-- App name -->
  <text x="290" y="258" font-family="Arial, PingFang SC, sans-serif" font-size="22" font-weight="700" fill="#333">万岁</text>

  <!-- Centered date navigation group -->
  <path d="M359 295 L348 303 L359 311" fill="none" stroke="#333" stroke-width="2.5" stroke-linecap="round" stroke-linejoin="round"/>
  <text x="450" y="310" text-anchor="middle" font-family="Arial, PingFang SC, sans-serif" font-size="20" fill="#777">6月9日 · 星期二</text>
  <path d="M541 295 L552 303 L541 311" fill="none" stroke="#c8c8c8" stroke-width="2.5" stroke-linecap="round" stroke-linejoin="round"/>

  <!-- Week grid: Jun 7-13, selected Tuesday Jun 9, today Thursday Jun 11 -->
  <g>
    <!-- Jun 7: past, no frame -->
    <rect x="288" y="342" width="15" height="15" rx="2" fill="#a9795b"/>
    <rect x="306" y="342" width="15" height="15" rx="2" fill="#d8d8d8"/>
    <rect x="288" y="360" width="15" height="15" rx="2" fill="#d8d8d8"/>
    <rect x="306" y="360" width="15" height="15" rx="2" fill="#7fb77e"/>

    <!-- Jun 8: past, no frame -->
    <rect x="336" y="342" width="15" height="15" rx="2" fill="#a9795b"/>
    <rect x="354" y="342" width="15" height="15" rx="2" fill="#315f8a"/>
    <rect x="336" y="360" width="15" height="15" rx="2" fill="#d8d8d8"/>
    <rect x="354" y="360" width="15" height="15" rx="2" fill="#d8d8d8"/>

    <!-- Jun 9: selected, black frame -->
    <rect x="379" y="337" width="43" height="43" rx="5" fill="none" stroke="#222" stroke-width="2"/>
    <rect x="384" y="342" width="15" height="15" rx="2" fill="#a9795b"/>
    <rect x="402" y="342" width="15" height="15" rx="2" fill="#d8d8d8"/>
    <rect x="384" y="360" width="15" height="15" rx="2" fill="#d8d8d8"/>
    <rect x="402" y="360" width="15" height="15" rx="2" fill="#d8d8d8"/>

    <!-- Jun 10: past, no frame -->
    <rect x="432" y="342" width="15" height="15" rx="2" fill="#a9795b"/>
    <rect x="450" y="342" width="15" height="15" rx="2" fill="#d8d8d8"/>
    <rect x="432" y="360" width="15" height="15" rx="2" fill="#d8d8d8"/>
    <rect x="450" y="360" width="15" height="15" rx="2" fill="#7fb77e"/>

    <!-- Jun 11: today, gray frame -->
    <rect x="475" y="337" width="43" height="43" rx="5" fill="none" stroke="#c8c8c8" stroke-width="2"/>
    <rect x="480" y="342" width="15" height="15" rx="2" fill="#a9795b"/>
    <rect x="498" y="342" width="15" height="15" rx="2" fill="#d8d8d8"/>
    <rect x="480" y="360" width="15" height="15" rx="2" fill="#d8d8d8"/>
    <rect x="498" y="360" width="15" height="15" rx="2" fill="#d8d8d8"/>

    <!-- Jun 12: future, all gray -->
    <rect x="528" y="342" width="15" height="15" rx="2" fill="#e8e8e8"/>
    <rect x="546" y="342" width="15" height="15" rx="2" fill="#e8e8e8"/>
    <rect x="528" y="360" width="15" height="15" rx="2" fill="#e8e8e8"/>
    <rect x="546" y="360" width="15" height="15" rx="2" fill="#e8e8e8"/>

    <!-- Jun 13: future, all gray -->
    <rect x="576" y="342" width="15" height="15" rx="2" fill="#e8e8e8"/>
    <rect x="594" y="342" width="15" height="15" rx="2" fill="#e8e8e8"/>
    <rect x="576" y="360" width="15" height="15" rx="2" fill="#e8e8e8"/>
    <rect x="594" y="360" width="15" height="15" rx="2" fill="#e8e8e8"/>
  </g>

  <!-- Main title -->
  <text x="285" y="432" font-family="Arial, PingFang SC, sans-serif" font-size="30" font-weight="700" fill="#222">我做了…</text>

  <!-- Task 1: checked, brown outline -->
  <rect x="285" y="464" width="330" height="62" rx="15" fill="#fff" stroke="#a9795b" stroke-width="3"/>
  <rect x="307" y="480" width="28" height="28" rx="5" fill="#a9795b"/>
  <text x="356" y="502" font-family="Arial, PingFang SC, sans-serif" font-size="20" font-weight="600" fill="#333">拉屎</text>
  <rect x="560" y="480" width="28" height="28" rx="6" fill="#fff" stroke="#a9795b" stroke-width="3"/>
  <path d="M567 494 L573 500 L581 488" fill="none" stroke="#a9795b" stroke-width="3" stroke-linecap="round" stroke-linejoin="round"/>

  <!-- Task 2: unchecked, gray outline -->
  <rect x="285" y="544" width="330" height="62" rx="15" fill="#fff" stroke="#d8d8d8" stroke-width="3"/>
  <rect x="307" y="560" width="28" height="28" rx="5" fill="#315f8a"/>
  <text x="356" y="582" font-family="Arial, PingFang SC, sans-serif" font-size="20" font-weight="600" fill="#333">早睡</text>
  <rect x="560" y="560" width="28" height="28" rx="6" fill="#fff" stroke="#d8d8d8" stroke-width="3"/>

  <!-- Task 3: unchecked, gray outline -->
  <rect x="285" y="624" width="330" height="62" rx="15" fill="#fff" stroke="#d8d8d8" stroke-width="3"/>
  <rect x="307" y="640" width="28" height="28" rx="5" fill="#82bde3"/>
  <text x="356" y="662" font-family="Arial, PingFang SC, sans-serif" font-size="20" font-weight="600" fill="#333">运动</text>
  <rect x="560" y="640" width="28" height="28" rx="6" fill="#fff" stroke="#d8d8d8" stroke-width="3"/>

  <!-- Task 4: unchecked, gray outline -->
  <rect x="285" y="704" width="330" height="62" rx="15" fill="#fff" stroke="#d8d8d8" stroke-width="3"/>
  <rect x="307" y="720" width="28" height="28" rx="5" fill="#7fb77e"/>
  <text x="356" y="742" font-family="Arial, PingFang SC, sans-serif" font-size="20" font-weight="600" fill="#333">饮食健康</text>
  <rect x="560" y="720" width="28" height="28" rx="6" fill="#fff" stroke="#d8d8d8" stroke-width="3"/>

  <!-- Bottom navigation -->
  <line x1="247" y1="879" x2="653" y2="879" stroke="#ccc" stroke-width="2"/>
  <circle cx="355" cy="922" r="13" fill="#333"/>
  <text x="355" y="958" text-anchor="middle" font-family="Arial, PingFang SC, sans-serif" font-size="16" font-weight="700" fill="#222">首页</text>

  <rect x="532" y="909" width="27" height="27" fill="none" stroke="#888" stroke-width="2"/>
  <line x1="541" y1="909" x2="541" y2="936" stroke="#888" stroke-width="2"/>
  <line x1="550" y1="909" x2="550" y2="936" stroke="#888" stroke-width="2"/>
  <line x1="532" y1="918" x2="559" y2="918" stroke="#888" stroke-width="2"/>
  <text x="545" y="958" text-anchor="middle" font-family="Arial, PingFang SC, sans-serif" font-size="16" fill="#777">记录</text>

  <!-- Notes -->
  <rect x="72" y="708" width="145" height="164" rx="12" fill="#fff" stroke="#aaa" stroke-width="2"/>
  <text x="90" y="741" font-family="Arial, PingFang SC, sans-serif" font-size="16" font-weight="700" fill="#333">卡片状态</text>
  <line x1="90" y1="770" x2="117" y2="770" stroke="#a9795b" stroke-width="3"/>
  <text x="127" y="776" font-family="Arial, PingFang SC, sans-serif" font-size="15" fill="#555">已勾选</text>
  <line x1="90" y1="806" x2="117" y2="806" stroke="#d8d8d8" stroke-width="3"/>
  <text x="127" y="812" font-family="Arial, PingFang SC, sans-serif" font-size="15" fill="#555">未勾选</text>
  <text x="90" y="848" font-family="Arial, PingFang SC, sans-serif" font-size="14" fill="#777">小方框固定</text>
  <text x="90" y="868" font-family="Arial, PingFang SC, sans-serif" font-size="14" fill="#777">显示任务颜色</text>
</svg>
