<svg xmlns="http://www.w3.org/2000/svg" width="520" height="980" viewBox="0 0 520 980">
  <defs>
    <filter id="shadow" x="-30%" y="-30%" width="160%" height="180%">
      <feDropShadow dx="0" dy="12" stdDeviation="18" flood-color="#534B3F" flood-opacity=".10"/>
    </filter>
  </defs>
  <rect width="520" height="980" fill="#EDEAE3"/>
  <rect x="65" y="38" width="390" height="844" rx="52" fill="#FAF9F6" filter="url(#shadow)"/>
  <rect x="196" y="54" width="128" height="28" rx="14" fill="#252522"/>

  <g font-family="-apple-system, BlinkMacSystemFont, 'PingFang SC', sans-serif">
    <text x="105" y="190" font-size="52" font-weight="750" fill="#252522">万岁</text>
    <text x="105" y="226" font-size="16" fill="#77756F">把今天做过的事，好好记下来。</text>

    <g transform="translate(105 322)">
      <rect width="310" height="72" rx="20" fill="#FFFFFF" stroke="#D8D6D0" stroke-width="1.5"/>
      <text x="22" y="27" font-size="12" fill="#AAA8A1">用户名</text>
      <text x="22" y="52" font-size="18" fill="#AAA8A1">请输入用户名</text>
    </g>

    <g transform="translate(105 414)">
      <rect width="310" height="58" rx="18" fill="#252522"/>
      <text x="155" y="36" text-anchor="middle" font-size="17" font-weight="650" fill="#FFFFFF">进入万岁</text>
      <path d="M273 24l8 5-8 5" fill="none" stroke="#FFFFFF" stroke-width="2" stroke-linecap="round" stroke-linejoin="round"/>
    </g>

    <g transform="translate(105 674)">
      <rect width="310" height="104" rx="22" fill="#EFECE5"/>
      <rect x="20" y="22" width="34" height="34" rx="10" fill="#FFFFFF"/>
      <path d="M29 38h16M37 30v16" stroke="#7FB77E" stroke-width="2.5" stroke-linecap="round"/>
      <text x="70" y="37" font-size="14" font-weight="650" fill="#252522">只属于你的 V1</text>
      <text x="70" y="61" font-size="13" fill="#77756F">手机会记住登录状态</text>
      <text x="70" y="82" font-size="13" fill="#77756F">换设备后重新输入用户名即可</text>
    </g>

    <text x="260" y="842" text-anchor="middle" font-size="12" fill="#AAA8A1">V1.0 · 单用户版本</text>
  </g>
</svg>
